<?xml version="1.0" standalone="no"?>
<!DOCTYPE svg PUBLIC "-//W3C//DTD SVG 20010904//EN"
 "http://www.w3.org/TR/2001/REC-SVG-20010904/DTD/svg10.dtd">
<svg version="1.0" xmlns="http://www.w3.org/2000/svg"
 width="1893.000000pt" height="226.000000pt" viewBox="0 0 1893.000000 226.000000"
 preserveAspectRatio="xMidYMid meet">

<g transform="translate(0.000000,226.000000) scale(0.100000,-0.100000)"
fill="#000000" stroke="none">
<path d="M12993 2240 c-39 -23 -53 -48 -69 -125 -18 -82 -17 -182 2 -268 16
-70 61 -176 90 -208 12 -13 11 -20 -6 -50 -117 -204 -155 -346 -148 -556 3
-105 5 -113 29 -135 22 -21 27 -35 33 -106 13 -162 90 -362 183 -477 99 -122
261 -222 428 -265 118 -30 289 -42 426 -30 384 33 638 215 752 537 28 77 57
215 57 269 0 29 4 34 23 34 53 1 68 36 69 168 2 171 -36 326 -121 488 l-48 91
38 61 c73 122 98 297 64 456 -25 118 -69 146 -206 129 -166 -21 -320 -89 -422
-187 l-50 -48 -97 16 c-121 20 -222 20 -339 0 l-92 -16 -42 45 c-79 84 -211
151 -359 181 -103 21 -156 20 -195 -4z m223 -121 c38 -12 90 -32 116 -45 47
-24 118 -80 118 -93 0 -4 -16 -15 -35 -24 -65 -31 -178 -111 -242 -170 l-63
-59 -32 68 c-29 61 -32 80 -36 181 -7 171 17 190 174 142z m1449 0 c6 -6 12
-54 13 -109 4 -106 -11 -182 -50 -252 l-21 -36 -74 65 c-81 70 -165 127 -231
157 -23 10 -42 24 -42 31 0 6 20 26 45 44 118 85 318 140 360 100z m-1256
-1008 c73 -22 140 -46 149 -54 17 -17 10 -44 -13 -53 -15 -6 -253 56 -302 79
-25 11 -30 36 -11 55 17 17 29 16 177 -27z m1065 3 c34 -33 17 -46 -104 -78
-210 -55 -241 -56 -248 -9 -4 24 27 39 108 53 30 5 84 18 120 29 81 24 104 25
124 5z m-500 -93 c49 -8 86 -37 86 -67 0 -17 -77 -111 -112 -137 -39 -29 -133
-35 -182 -12 -35 17 -101 86 -125 132 -15 29 3 69 38 82 32 12 228 13 295 2z
m-424 -140 c0 -32 -23 -40 -178 -63 -125 -18 -153 -20 -166 -9 -18 15 -20 29
-7 49 11 18 309 62 334 50 9 -5 17 -17 17 -27z m710 14 c30 -4 60 -11 65 -15
6 -4 39 -11 73 -14 94 -10 114 -20 110 -54 -2 -23 -8 -28 -36 -30 -18 -2 -54
2 -80 8 -26 7 -84 18 -130 25 -106 18 -119 22 -127 43 -8 21 30 55 54 48 9 -3
41 -8 71 -11z"/>
<path d="M814 2030 c-315 -21 -487 -82 -624 -219 -76 -76 -130 -172 -162 -288
-21 -74 -22 -102 -26 -573 -4 -526 1 -615 40 -697 30 -63 97 -129 161 -158
103 -47 309 -52 426 -10 157 56 232 197 230 435 l0 75 -52 41 c-35 27 -61 58
-78 95 -27 56 -44 139 -28 139 5 0 9 -4 9 -9 0 -4 27 -37 60 -73 71 -78 166
-132 272 -155 113 -24 333 -21 431 5 212 58 345 193 404 412 26 97 24 357 -5
461 -104 384 -460 559 -1058 519z m250 -400 c34 -13 56 -59 56 -120 0 -92 -71
-130 -131 -71 -26 26 -29 36 -29 91 0 51 4 65 25 85 26 27 41 30 79 15z m229
-10 c68 -54 30 -210 -51 -210 -48 0 -74 29 -79 87 -11 106 63 176 130 123z
m-362 -180 c45 -25 66 -134 32 -172 -22 -25 -83 -24 -116 3 -35 27 -52 89 -37
134 6 19 16 36 23 39 22 8 78 6 98 -4z m519 0 c44 -23 33 -131 -17 -170 -31
-24 -90 -26 -115 -3 -21 19 -25 91 -7 126 26 51 91 73 139 47z m-256 -54 c23
-9 42 -30 64 -69 17 -31 45 -71 62 -91 38 -43 47 -90 27 -138 -24 -56 -52 -65
-207 -66 -178 0 -209 17 -210 115 0 44 5 57 36 94 19 24 46 64 59 89 36 71 98
96 169 66z"/>
<path d="M2307 1990 c-52 -9 -120 -45 -154 -82 -12 -12 -34 -50 -50 -83 l-28
-60 0 -725 0 -725 29 -63 c32 -69 77 -114 145 -146 45 -20 58 -21 566 -21 574
0 583 1 653 61 22 18 50 57 63 86 20 46 24 68 23 163 0 100 -2 115 -28 168
-29 60 -65 94 -132 124 -34 15 -79 18 -351 21 l-313 4 0 38 0 38 273 4 c255 3
274 4 312 25 87 46 119 106 119 223 0 119 -33 178 -124 226 -30 16 -65 19
-237 22 l-203 4 0 38 0 38 258 4 c253 3 260 4 308 29 42 21 54 35 84 94 34 66
35 72 35 179 0 167 -36 240 -142 292 l-58 29 -500 2 c-275 0 -521 -3 -548 -7z"/>
<path d="M3839 1990 c-147 -26 -212 -119 -213 -306 0 -94 2 -106 32 -166 59
-120 133 -147 395 -148 l157 0 0 -45 0 -45 -101 0 -101 0 4 -462 c5 -508 6
-516 67 -609 57 -86 147 -133 283 -149 237 -28 413 53 480 219 23 55 23 62 26
572 l3 516 87 6 c116 9 156 21 196 62 50 50 70 119 70 245 -1 161 -40 240
-143 289 l-56 26 -570 2 c-313 0 -591 -2 -616 -7z"/>
<path d="M6315 1989 c-349 -32 -619 -205 -756 -484 -108 -221 -135 -495 -78
-780 39 -190 109 -327 233 -451 117 -116 237 -181 418 -224 235 -55 561 -43
780 31 319 107 445 356 317 625 -34 72 -128 165 -184 184 -20 7 -67 10 -103 8
-57 -3 -87 -13 -192 -63 -122 -58 -127 -59 -211 -60 -78 0 -90 3 -134 30 -66
41 -90 89 -90 180 0 114 55 188 159 216 72 20 137 5 274 -60 148 -70 203 -81
284 -57 172 50 290 309 232 507 -24 79 -57 130 -130 198 -121 114 -311 182
-558 201 -72 5 -140 9 -151 9 -11 -1 -60 -5 -110 -10z"/>
<path d="M7735 1990 c-97 -11 -175 -43 -235 -97 -60 -54 -94 -116 -109 -198
-14 -77 -15 -804 0 -932 37 -336 162 -546 389 -656 118 -58 227 -84 400 -97
233 -19 456 4 615 61 269 97 412 297 465 649 16 104 24 758 12 899 -16 182
-70 269 -207 332 -109 51 -331 58 -455 14 -60 -21 -133 -76 -170 -127 -62 -85
-63 -99 -68 -591 -3 -434 -4 -447 -23 -458 -16 -8 -26 -7 -45 6 l-24 15 0 419
c0 241 -4 441 -10 472 -32 166 -152 267 -345 289 -49 5 -97 9 -105 9 -8 -1
-46 -5 -85 -9z"/>
<path d="M10070 1989 c-352 -29 -588 -189 -655 -444 -20 -78 -20 -239 1 -319
81 -317 372 -477 896 -493 l186 -6 6 -30 c4 -17 2 -35 -3 -40 -6 -6 -85 -7
-198 -4 -243 7 -402 42 -599 132 -66 30 -74 31 -108 20 -60 -21 -106 -64 -135
-124 -23 -51 -26 -68 -26 -176 0 -114 2 -123 31 -185 70 -146 213 -227 489
-275 125 -22 448 -35 584 -24 361 29 581 171 662 429 25 79 30 238 10 320 -30
122 -110 240 -215 314 -171 123 -381 179 -726 194 l-155 7 -3 27 c-3 25 -1 27
55 34 77 9 299 -2 393 -21 116 -23 243 -62 343 -106 l92 -39 55 28 c105 53
149 163 137 344 -7 109 -36 179 -103 243 -96 94 -294 162 -537 184 -162 15
-367 19 -477 10z"/>
<path d="M15300 1989 c-127 -17 -238 -95 -289 -205 -56 -118 -56 -119 -56
-784 0 -668 1 -680 56 -796 53 -113 151 -176 299 -193 330 -37 520 115 520
416 0 80 -1 83 -28 97 -65 33 -120 121 -136 214 -5 32 -5 32 33 32 38 0 39 -1
51 -50 14 -60 40 -94 88 -119 135 -68 295 -10 324 116 13 52 13 53 50 53 43 0
44 -3 25 -78 -18 -68 -61 -127 -114 -159 l-43 -25 0 -77 c0 -138 39 -242 121
-322 84 -82 228 -117 398 -98 114 13 188 47 251 116 101 110 120 251 120 893
-1 534 -16 677 -83 793 -80 136 -243 200 -451 177 -215 -25 -347 -134 -411
-340 -12 -39 -18 -104 -21 -225 -6 -218 -6 -217 -47 -213 l-32 3 -12 195 c-16
270 -43 351 -155 457 -62 58 -130 95 -203 111 -75 16 -182 21 -255 11z"/>
<path d="M17770 1989 c-352 -29 -588 -189 -655 -444 -20 -78 -20 -239 1 -319
81 -317 372 -477 896 -493 l186 -6 6 -30 c4 -17 2 -35 -3 -40 -6 -6 -85 -7
-198 -4 -243 7 -402 42 -599 132 -66 30 -74 31 -108 20 -60 -21 -106 -64 -135
-124 -23 -51 -26 -68 -26 -176 0 -114 2 -123 31 -185 70 -146 213 -227 489
-275 125 -22 448 -35 584 -24 361 29 581 171 662 429 25 79 30 238 10 320 -30
122 -110 240 -215 314 -171 123 -381 179 -726 194 l-155 7 -3 27 c-3 25 -1 27
55 34 77 9 299 -2 393 -21 116 -23 243 -62 343 -106 l92 -39 55 28 c105 53
149 163 137 344 -7 109 -36 179 -103 243 -96 94 -294 162 -537 184 -162 15
-367 19 -477 10z"/>
<path d="M11509 1950 c-147 -26 -212 -119 -213 -306 0 -94 2 -106 32 -166 59
-120 133 -147 395 -148 l157 0 0 -45 0 -45 -101 0 -101 0 4 -462 c5 -508 6
-516 67 -609 57 -86 147 -133 283 -149 237 -28 413 53 480 219 23 55 23 62 26
572 l3 516 87 6 c116 9 156 21 196 62 50 50 70 119 70 245 -1 161 -40 240
-143 289 l-56 26 -570 2 c-313 0 -591 -2 -616 -7z"/>
</g>
</svg>
